<?xml version="1.0" encoding="UTF-8" standalone="no"?>
<!DOCTYPE svg PUBLIC "-//W3C//DTD SVG 1.1//EN"
 "http://www.w3.org/Graphics/SVG/1.1/DTD/svg11.dtd">
<!-- Generated by graphviz version 2.43.0 (0)
 -->
<!-- Title: putint Pages: 1 -->
<svg width="149pt" height="66pt"
 viewBox="0.00 0.00 149.00 66.00" xmlns="http://www.w3.org/2000/svg" xmlns:xlink="http://www.w3.org/1999/xlink">
<g id="graph0" class="graph" transform="scale(1 1) rotate(0) translate(4 62)">
<title>putint</title>
<polygon fill="white" stroke="transparent" points="-4,4 -4,-62 145,-62 145,4 -4,4"/>
<!-- Node1 -->
<g id="node1" class="node">
<title>Node1</title>
<g id="a_node1"><a xlink:title="print integer using global radix">
<polygon fill="#bfbfbf" stroke="black" points="0,-19.5 0,-38.5 45,-38.5 45,-19.5 0,-19.5"/>
<text text-anchor="middle" x="22.5" y="-26.5" font-family="Helvetica,sans-Serif" font-size="10.00">putint</text>
</a>
</g>
</g>
<!-- Node2 -->
<g id="node2" class="node">
<title>Node2</title>
<g id="a_node2"><a xlink:href="chastelib_8h.html#a0b100e2d8ea54bc4bc4de8dc949820ac" target="_top" xlink:title="Convert an unsigned integer to a string in the current global radix.">
<polygon fill="white" stroke="black" points="90,-38.5 90,-57.5 132,-57.5 132,-38.5 90,-38.5"/>
<text text-anchor="middle" x="111" y="-45.5" font-family="Helvetica,sans-Serif" font-size="10.00">intstr</text>
</a>
</g>
</g>
<!-- Node1&#45;&gt;Node2 -->
<g id="edge1" class="edge">
<title>Node1&#45;&gt;Node2</title>
<path fill="none" stroke="midnightblue" d="M45.33,-33.79C55.83,-36.1 68.58,-38.9 79.98,-41.41"/>
<polygon fill="midnightblue" stroke="midnightblue" points="79.44,-44.87 89.96,-43.6 80.94,-38.03 79.44,-44.87"/>
</g>
<!-- Node3 -->
<g id="node3" class="node">
<title>Node3</title>
<g id="a_node3"><a xlink:href="chastelib_8h.html#a99071933052d6c0cdf0640ddd7c7f5a6" target="_top" xlink:title="print a strint to stdout">
<polygon fill="white" stroke="black" points="81,-0.5 81,-19.5 141,-19.5 141,-0.5 81,-0.5"/>
<text text-anchor="middle" x="111" y="-7.5" font-family="Helvetica,sans-Serif" font-size="10.00">putstring</text>
</a>
</g>
</g>
<!-- Node1&#45;&gt;Node3 -->
<g id="edge2" class="edge">
<title>Node1&#45;&gt;Node3</title>
<path fill="none" stroke="midnightblue" d="M45.33,-24.21C53.18,-22.48 62.3,-20.48 71.16,-18.53"/>
<polygon fill="midnightblue" stroke="midnightblue" points="71.97,-21.94 80.99,-16.37 70.47,-15.1 71.97,-21.94"/>
</g>
</g>
</svg>
